<?xml version="1.0" encoding="UTF-8"?>
<!DOCTYPE svg PUBLIC "-//W3C//DTD SVG 1.1//EN" "http://www.w3.org/Graphics/SVG/1.1/DTD/svg11.dtd">
<svg xmlns="http://www.w3.org/2000/svg" version="1.1" width="254px" height="186px" style="shape-rendering:geometricPrecision; text-rendering:geometricPrecision; image-rendering:optimizeQuality; fill-rule:evenodd; clip-rule:evenodd" xmlns:xlink="http://www.w3.org/1999/xlink">
<g><path style="opacity:0.717" fill="#f4be3d" d="M 102.5,43.5 C 99.0649,43.6883 96.0649,42.6883 93.5,40.5C 86.9147,37.6709 79.9147,36.0043 72.5,35.5C 67.1554,35.6865 61.8221,36.0199 56.5,36.5C 53.7387,37.9205 50.7387,38.5871 47.5,38.5C 66.6192,30.7408 84.9526,32.4074 102.5,43.5 Z"/></g>
<g><path style="opacity:1" fill="#fab90d" d="M 72.5,35.5 C 73.6002,36.5585 74.9336,37.3918 76.5,38C 70.8978,39.651 65.5645,39.4843 60.5,37.5C 59.5,37.6667 58.5,37.8333 57.5,38C 58.305,39.1127 58.9717,40.2794 59.5,41.5C 55.0855,41.1759 54.0855,39.5092 56.5,36.5C 61.8221,36.0199 67.1554,35.6865 72.5,35.5 Z"/></g>
<g><path style="opacity:1" fill="#fdb60c" d="M 72.5,35.5 C 79.9147,36.0043 86.9147,37.6709 93.5,40.5C 91.5739,41.4861 89.5739,42.4861 87.5,43.5C 87.4207,42.0416 86.9207,40.7083 86,39.5C 78.8781,39.6053 71.7114,40.2719 64.5,41.5C 62.8333,41.5 61.1667,41.5 59.5,41.5C 58.9717,40.2794 58.305,39.1127 57.5,38C 58.5,37.8333 59.5,37.6667 60.5,37.5C 65.5645,39.4843 70.8978,39.651 76.5,38C 74.9336,37.3918 73.6002,36.5585 72.5,35.5 Z"/></g>
<g><path style="opacity:1" fill="#f8ba1c" d="M 56.5,36.5 C 54.0855,39.5092 55.0855,41.1759 59.5,41.5C 61.1667,41.5 62.8333,41.5 64.5,41.5C 64.5,41.8333 64.5,42.1667 64.5,42.5C 60.4764,43.0381 56.4764,43.7048 52.5,44.5C 52.9175,43.7784 53.5842,43.2784 54.5,43C 51.211,40.7912 47.5443,39.9579 43.5,40.5C 43.6882,42.1033 43.1882,43.4366 42,44.5C 41.6667,44.1667 41.3333,43.8333 41,43.5C 38.9129,44.3972 36.7463,45.0639 34.5,45.5C 38.0707,41.8793 42.404,39.546 47.5,38.5C 50.7387,38.5871 53.7387,37.9205 56.5,36.5 Z"/></g>
<g><path style="opacity:1" fill="#fbba11" d="M 87.5,43.5 C 89.8333,44.8333 92.1667,46.1667 94.5,47.5C 93.1667,47.5 91.8333,47.5 90.5,47.5C 88.0784,45.732 85.4117,44.232 82.5,43C 76.5092,42.5005 70.5092,42.3338 64.5,42.5C 64.5,42.1667 64.5,41.8333 64.5,41.5C 71.7114,40.2719 78.8781,39.6053 86,39.5C 86.9207,40.7083 87.4207,42.0416 87.5,43.5 Z"/></g>
<g><path style="opacity:1" fill="#fbb811" d="M 52.5,44.5 C 50.283,45.3686 47.9496,45.702 45.5,45.5C 45.741,48.999 44.9076,49.3323 43,46.5C 42.5172,47.448 42.3505,48.448 42.5,49.5C 41.1779,49.67 40.0113,49.3366 39,48.5C 38.805,49.8193 38.9717,51.1526 39.5,52.5C 38.4206,54.543 36.754,55.8763 34.5,56.5C 32.1485,55.2878 30.3151,55.9545 29,58.5C 24.0982,54.3734 24.9315,52.04 31.5,51.5C 31.615,49.0532 32.615,47.0532 34.5,45.5C 36.7463,45.0639 38.9129,44.3972 41,43.5C 41.3333,43.8333 41.6667,44.1667 42,44.5C 43.1882,43.4366 43.6882,42.1033 43.5,40.5C 47.5443,39.9579 51.211,40.7912 54.5,43C 53.5842,43.2784 52.9175,43.7784 52.5,44.5 Z"/></g>
<g><path style="opacity:1" fill="#fbb70f" d="M 93.5,40.5 C 96.0649,42.6883 99.0649,43.6883 102.5,43.5C 102.577,44.7498 103.244,45.5831 104.5,46C 103.929,47.2051 103.262,48.3717 102.5,49.5C 103.016,48.2418 102.35,47.2418 100.5,46.5C 100.693,47.6882 100.193,49.0215 99,50.5C 97.6897,49.1031 96.1897,48.1031 94.5,47.5C 92.1667,46.1667 89.8333,44.8333 87.5,43.5C 89.5739,42.4861 91.5739,41.4861 93.5,40.5 Z"/></g>
<g><path style="opacity:1" fill="#f0ba39" d="M 64.5,42.5 C 70.5092,42.3338 76.5092,42.5005 82.5,43C 85.4117,44.232 88.0784,45.732 90.5,47.5C 72.6474,40.9269 55.6474,42.5935 39.5,52.5C 38.9717,51.1526 38.805,49.8193 39,48.5C 40.0113,49.3366 41.1779,49.67 42.5,49.5C 42.3505,48.448 42.5172,47.448 43,46.5C 44.9076,49.3323 45.741,48.999 45.5,45.5C 47.9496,45.702 50.283,45.3686 52.5,44.5C 56.4764,43.7048 60.4764,43.0381 64.5,42.5 Z"/></g>
<g><path style="opacity:0.794" fill="#f0bd46" d="M 86.5,53.5 C 85.791,54.404 84.791,54.7373 83.5,54.5C 82.7375,53.7321 81.7375,53.2321 80.5,53C 72.9885,52.8288 65.6552,52.3288 58.5,51.5C 68.0188,49.799 77.3521,50.4656 86.5,53.5 Z"/></g>
<g><path style="opacity:1" fill="#f6ba29" d="M 102.5,43.5 C 108.411,46.7419 113.411,51.0753 117.5,56.5C 115.284,55.7974 113.451,54.4641 112,52.5C 111.333,53.1667 110.667,53.8333 110,54.5C 107.806,51.6177 105.306,51.1177 102.5,53C 103.823,53.8159 104.489,54.9826 104.5,56.5C 100.137,52.9876 95.4699,49.9876 90.5,47.5C 91.8333,47.5 93.1667,47.5 94.5,47.5C 96.1897,48.1031 97.6897,49.1031 99,50.5C 100.193,49.0215 100.693,47.6882 100.5,46.5C 102.35,47.2418 103.016,48.2418 102.5,49.5C 103.262,48.3717 103.929,47.2051 104.5,46C 103.244,45.5831 102.577,44.7498 102.5,43.5 Z"/></g>
<g><path style="opacity:1" fill="#f9bb1c" d="M 58.5,51.5 C 65.6552,52.3288 72.9885,52.8288 80.5,53C 81.7375,53.2321 82.7375,53.7321 83.5,54.5C 80.0729,54.0244 76.7395,54.0244 73.5,54.5C 74.2421,55.2868 75.0754,55.9535 76,56.5C 76.7175,55.5494 77.5509,55.3828 78.5,56C 78.9743,57.7286 79.9743,58.8953 81.5,59.5C 82.8333,60.8333 84.1667,62.1667 85.5,63.5C 81.9523,62.8699 78.6189,61.8699 75.5,60.5C 75.1788,58.9519 74.1788,58.2852 72.5,58.5C 72.5,57.5 72.5,56.5 72.5,55.5C 69.7562,55.7521 67.2562,55.0855 65,53.5C 64.0497,54.0223 63.2164,54.689 62.5,55.5C 59.624,53.0406 56.624,52.8739 53.5,55C 56.4016,55.9186 56.7349,56.7519 54.5,57.5C 52.2064,59.7486 50.2064,59.4152 48.5,56.5C 51.4887,54.3389 54.822,52.6723 58.5,51.5 Z"/></g>
<g><path style="opacity:1" fill="#fcb70d" d="M 72.5,58.5 C 69.8067,58.4285 67.1401,58.0951 64.5,57.5C 61.1271,58.5145 57.9604,59.8479 55,61.5C 54.6174,60.944 54.1174,60.6107 53.5,60.5C 54.1098,59.609 54.4431,58.609 54.5,57.5C 56.7349,56.7519 56.4016,55.9186 53.5,55C 56.624,52.8739 59.624,53.0406 62.5,55.5C 63.2164,54.689 64.0497,54.0223 65,53.5C 67.2562,55.0855 69.7562,55.7521 72.5,55.5C 72.5,56.5 72.5,57.5 72.5,58.5 Z"/></g>
<g><path style="opacity:1" fill="#fcb80f" d="M 83.5,54.5 C 84.791,54.7373 85.791,54.404 86.5,53.5C 87.1667,53.5 87.5,53.8333 87.5,54.5C 87.8807,55.9311 88.8807,56.7645 90.5,57C 87.8673,57.4232 85.7006,58.5899 84,60.5C 83.3292,59.7476 82.4959,59.4142 81.5,59.5C 79.9743,58.8953 78.9743,57.7286 78.5,56C 77.5509,55.3828 76.7175,55.5494 76,56.5C 75.0754,55.9535 74.2421,55.2868 73.5,54.5C 76.7395,54.0244 80.0729,54.0244 83.5,54.5 Z"/></g>
<g><path style="opacity:1" fill="#f5ba2c" d="M 34.5,45.5 C 32.615,47.0532 31.615,49.0532 31.5,51.5C 24.9315,52.04 24.0982,54.3734 29,58.5C 30.3151,55.9545 32.1485,55.2878 34.5,56.5C 32.1141,59.9524 29.2807,62.9524 26,65.5C 18.6061,63.5915 17.6061,59.9249 23,54.5C 26.1551,50.4975 29.9885,47.4975 34.5,45.5 Z"/></g>
<g><path style="opacity:1" fill="#fab818" d="M 117.5,56.5 C 117.5,58.5 117.5,60.5 117.5,62.5C 114.308,62.5955 111.308,61.9288 108.5,60.5C 106.833,59.5 105.5,58.1667 104.5,56.5C 104.489,54.9826 103.823,53.8159 102.5,53C 105.306,51.1177 107.806,51.6177 110,54.5C 110.667,53.8333 111.333,53.1667 112,52.5C 113.451,54.4641 115.284,55.7974 117.5,56.5 Z"/></g>
<g><path style="opacity:0.923" fill="#f3bc33" d="M 72.5,58.5 C 74.1788,58.2852 75.1788,58.9519 75.5,60.5C 67.9518,60.0724 60.6185,61.0724 53.5,63.5C 53.5,62.5 53.5,61.5 53.5,60.5C 54.1174,60.6107 54.6174,60.944 55,61.5C 57.9604,59.8479 61.1271,58.5145 64.5,57.5C 67.1401,58.0951 69.8067,58.4285 72.5,58.5 Z"/></g>
<g><path style="opacity:1" fill="#f6b625" d="M 48.5,56.5 C 50.2064,59.4152 52.2064,59.7486 54.5,57.5C 54.4431,58.609 54.1098,59.609 53.5,60.5C 53.5,61.5 53.5,62.5 53.5,63.5C 50.7198,66.0638 47.7198,68.3971 44.5,70.5C 45.6045,68.8467 45.7712,67.18 45,65.5C 45.414,65.9574 45.914,66.2907 46.5,66.5C 47.2287,64.2662 48.2287,62.9328 49.5,62.5C 48.8848,60.8839 47.8848,59.5505 46.5,58.5C 45.3132,59.6527 44.3132,59.6527 43.5,58.5C 45.0495,57.5592 46.7162,56.8925 48.5,56.5 Z"/></g>
<g><path style="opacity:1" fill="#f9b91a" d="M 87.5,54.5 C 92.8546,56.5058 97.5213,59.5058 101.5,63.5C 101.877,65.258 102.544,66.9246 103.5,68.5C 100.321,71.4871 97.654,71.1537 95.5,67.5C 93.9547,66.5481 92.288,66.2148 90.5,66.5C 88.5659,65.8897 86.8993,64.8897 85.5,63.5C 84.1667,62.1667 82.8333,60.8333 81.5,59.5C 82.4959,59.4142 83.3292,59.7476 84,60.5C 85.7006,58.5899 87.8673,57.4232 90.5,57C 88.8807,56.7645 87.8807,55.9311 87.5,54.5 Z"/></g>
<g><path style="opacity:0.982" fill="#f0bf3c" d="M 117.5,56.5 C 121.206,59.0791 121.206,61.5791 117.5,64C 113.387,66.1087 110.387,64.942 108.5,60.5C 111.308,61.9288 114.308,62.5955 117.5,62.5C 117.5,60.5 117.5,58.5 117.5,56.5 Z"/></g>
<g><path style="opacity:1" fill="#fbb911" d="M 43.5,58.5 C 44.3132,59.6527 45.3132,59.6527 46.5,58.5C 47.8848,59.5505 48.8848,60.8839 49.5,62.5C 48.2287,62.9328 47.2287,64.2662 46.5,66.5C 45.914,66.2907 45.414,65.9574 45,65.5C 45.7712,67.18 45.6045,68.8467 44.5,70.5C 41.1194,71.1123 38.7861,69.9456 37.5,67C 39.3994,64.6108 41.0661,62.1108 42.5,59.5C 42.5,58.8333 42.8333,58.5 43.5,58.5 Z"/></g>
<g><path style="opacity:1" fill="#efb93d" d="M 101.5,63.5 C 107.054,67.0852 106.721,69.9185 100.5,72C 96.2401,72.0336 92.9068,70.2003 90.5,66.5C 92.288,66.2148 93.9547,66.5481 95.5,67.5C 97.654,71.1537 100.321,71.4871 103.5,68.5C 102.544,66.9246 101.877,65.258 101.5,63.5 Z"/></g>
<g><path style="opacity:1" fill="#e8b738" d="M 42.5,59.5 C 41.0661,62.1108 39.3994,64.6108 37.5,67C 38.7861,69.9456 41.1194,71.1123 44.5,70.5C 44.0377,71.8799 43.0377,72.5466 41.5,72.5C 39.2383,71.5331 36.905,70.8664 34.5,70.5C 35.5406,65.7725 38.2073,62.1059 42.5,59.5 Z"/></g>
<g><path style="opacity:1" fill="#fab913" d="M 77.5,68.5 C 77.5,69.1667 77.5,69.8333 77.5,70.5C 73.9952,70.6941 73.6618,71.6941 76.5,73.5C 74.0281,73.9416 71.5281,74.275 69,74.5C 66.9501,74.309 65.1168,73.6424 63.5,72.5C 62.4937,72.9377 62.4937,73.6043 63.5,74.5C 61.9223,75.2978 60.2556,75.7978 58.5,76C 58.8333,76.3333 59.1667,76.6667 59.5,77C 58.1667,77.6667 56.8333,77.6667 55.5,77C 58.8959,75.608 59.5626,73.7746 57.5,71.5C 59.3316,70.9432 60.6649,69.9432 61.5,68.5C 66.8333,65.8333 72.1667,65.8333 77.5,68.5 Z"/></g>
<g><path style="opacity:0.992" fill="#ebba41" d="M 77.5,68.5 C 82.9402,69.3859 87.2735,72.0526 90.5,76.5C 88.1071,78.3631 85.4404,79.6965 82.5,80.5C 80.8295,80.3318 79.4961,79.6651 78.5,78.5C 78.8333,78.5 79.1667,78.5 79.5,78.5C 81.1992,78.6602 82.8659,78.4935 84.5,78C 84.0426,77.586 83.7093,77.086 83.5,76.5C 84.5,75.8333 85.5,75.1667 86.5,74.5C 83.9109,72.3747 80.9109,71.0414 77.5,70.5C 77.5,69.8333 77.5,69.1667 77.5,68.5 Z"/></g>
<g><path style="opacity:0.451" fill="#d9a94e" d="M 53.5,72.5 C 52.645,73.5307 51.9783,74.6974 51.5,76C 52.5442,77.1739 53.5442,78.3406 54.5,79.5C 52.097,79.305 50.4304,78.1384 49.5,76C 50.0717,73.9264 51.405,72.7598 53.5,72.5 Z"/></g>
<g><path style="opacity:1" fill="#f5b928" d="M 61.5,68.5 C 60.6649,69.9432 59.3316,70.9432 57.5,71.5C 59.5626,73.7746 58.8959,75.608 55.5,77C 56.8333,77.6667 58.1667,77.6667 59.5,77C 59.1667,76.6667 58.8333,76.3333 58.5,76C 60.2556,75.7978 61.9223,75.2978 63.5,74.5C 62.4937,73.6043 62.4937,72.9377 63.5,72.5C 65.1168,73.6424 66.9501,74.309 69,74.5C 71.5281,74.275 74.0281,73.9416 76.5,73.5C 77.2216,73.9175 77.7216,74.5842 78,75.5C 78.3333,75.1667 78.6667,74.8333 79,74.5C 79.49,75.7932 79.6567,77.1266 79.5,78.5C 79.1667,78.5 78.8333,78.5 78.5,78.5C 75.7545,77.5308 72.9212,76.8641 70,76.5C 65.4383,77.2439 61.105,78.5772 57,80.5C 55.9302,80.472 55.0968,80.1386 54.5,79.5C 53.5442,78.3406 52.5442,77.1739 51.5,76C 51.9783,74.6974 52.645,73.5307 53.5,72.5C 55.5792,70.127 58.2459,68.7936 61.5,68.5 Z"/></g>
<g><path style="opacity:1" fill="#fcb710" d="M 77.5,70.5 C 80.9109,71.0414 83.9109,72.3747 86.5,74.5C 85.5,75.1667 84.5,75.8333 83.5,76.5C 83.7093,77.086 84.0426,77.586 84.5,78C 82.8659,78.4935 81.1992,78.6602 79.5,78.5C 79.6567,77.1266 79.49,75.7932 79,74.5C 78.6667,74.8333 78.3333,75.1667 78,75.5C 77.7216,74.5842 77.2216,73.9175 76.5,73.5C 73.6618,71.6941 73.9952,70.6941 77.5,70.5 Z"/></g>
<g><path style="opacity:0.999" fill="#47535f" d="M 106.5,77.5 C 106.667,93.8367 106.5,110.17 106,126.5C 105.617,127.056 105.117,127.389 104.5,127.5C 104.5,122.167 104.5,116.833 104.5,111.5C 104.901,105.044 104.234,98.7105 102.5,92.5C 102.621,91.1055 102.954,89.7722 103.5,88.5C 103.145,87.4777 102.478,86.811 101.5,86.5C 101.527,83.8599 101.527,81.1932 101.5,78.5C 103.045,77.5481 104.712,77.2148 106.5,77.5 Z"/></g>
<g><path style="opacity:1" fill="#47535a" d="M 40.5,77.5 C 44.9576,79.2288 49.2909,81.2288 53.5,83.5C 54.2916,84.9669 54.2916,86.3002 53.5,87.5C 52.0715,86.065 50.4048,85.065 48.5,84.5C 46.1966,84.8763 45.8632,85.8763 47.5,87.5C 44.8333,86.5 42.1667,85.5 39.5,84.5C 39.1412,82.2341 39.8078,80.4007 41.5,79C 40.944,78.6174 40.6107,78.1174 40.5,77.5 Z"/></g>
<g><path style="opacity:0.951" fill="#40535b" d="M 143.5,87.5 C 142.041,87.4326 140.708,87.7659 139.5,88.5C 139.565,88.0618 139.399,87.7284 139,87.5C 137.306,89.6555 135.473,89.4889 133.5,87C 131.866,86.5065 130.199,86.3398 128.5,86.5C 128.5,85.5 128.5,84.5 128.5,83.5C 132.884,83.1744 137.217,83.5078 141.5,84.5C 142.193,85.5178 142.859,86.5178 143.5,87.5 Z"/></g>
<g><path style="opacity:1" fill="#45535b" d="M 106.5,77.5 C 104.712,77.2148 103.045,77.5481 101.5,78.5C 101.527,81.1932 101.527,83.8599 101.5,86.5C 101.5,88.1667 101.5,89.8333 101.5,91.5C 101.167,91.5 100.833,91.5 100.5,91.5C 100.808,89.076 100.474,86.7427 99.5,84.5C 92.1136,88.1932 84.7802,91.8599 77.5,95.5C 76.0047,95.5852 75.0047,94.9185 74.5,93.5C 77.2625,91.5541 79.5958,89.2208 81.5,86.5C 89.151,81.1752 97.4843,77.1752 106.5,74.5C 106.5,75.5 106.5,76.5 106.5,77.5 Z"/></g>
<g><path style="opacity:0.176" fill="#424d57" d="M 209.5,81.5 C 212.864,80.7893 215.197,81.956 216.5,85C 214.662,87.3028 212.328,87.9694 209.5,87C 208.248,85.1722 208.248,83.3388 209.5,81.5 Z"/></g>
<g><path style="opacity:1" fill="#38424a" d="M 30.5,120.5 C 29.6706,112.343 29.1706,104.01 29,95.5C 28,91.5 27,91.5 26,95.5C 25.6667,94.8333 25.3333,94.1667 25,93.5C 24.7566,106.525 24.2566,119.525 23.5,132.5C 22.7632,118.975 22.4299,105.308 22.5,91.5C 22.9224,87.7866 23.589,84.12 24.5,80.5C 26.4134,81.373 28.2467,82.373 30,83.5C 30.4999,95.8288 30.6665,108.162 30.5,120.5 Z"/></g>
<g><path style="opacity:0.984" fill="#42525c" d="M 115.5,86.5 C 115.716,89.4317 115.049,92.0983 113.5,94.5C 114.764,100.316 114.764,105.982 113.5,111.5C 112.833,106.5 112.167,101.5 111.5,96.5C 111.5,92.8333 111.5,89.1667 111.5,85.5C 112.959,85.4326 114.292,85.7659 115.5,86.5 Z"/></g>
<g><path style="opacity:1" fill="#43525c" d="M 224.5,89.5 C 226.356,89.6427 228.356,90.476 230.5,92C 229.756,93.0386 228.756,93.5386 227.5,93.5C 222.223,95.9669 222.223,98.3002 227.5,100.5C 229.373,99.1365 231.039,97.4699 232.5,95.5C 233.411,97.6298 233.744,99.9632 233.5,102.5C 233.5,103.833 232.833,104.5 231.5,104.5C 231.631,103.761 231.464,103.094 231,102.5C 230.196,103.804 229.029,104.471 227.5,104.5C 226.74,103.511 225.573,102.845 224,102.5C 222.893,102.585 221.893,102.919 221,103.5C 220.818,100.774 220.318,98.1071 219.5,95.5C 218.817,95.1373 218.15,94.8039 217.5,94.5C 217.5,90.1667 217.5,85.8333 217.5,81.5C 219.5,81.5 221.5,81.5 223.5,81.5C 223.194,84.3854 223.527,87.0521 224.5,89.5 Z"/></g>
<g><path style="opacity:1" fill="#405359" d="M 101.5,86.5 C 102.478,86.811 103.145,87.4777 103.5,88.5C 102.954,89.7722 102.621,91.1055 102.5,92.5C 104.234,98.7105 104.901,105.044 104.5,111.5C 103.5,111.5 102.5,111.5 101.5,111.5C 101.5,104.833 101.5,98.1667 101.5,91.5C 101.5,89.8333 101.5,88.1667 101.5,86.5 Z"/></g>
<g><path style="opacity:1" fill="#455059" d="M 148.5,103.5 C 150.54,104.519 152.54,104.519 154.5,103.5C 153.753,103.264 152.92,102.93 152,102.5C 151.667,99.5 151.333,96.5 151,93.5C 150.586,93.0426 150.086,92.7093 149.5,92.5C 148.358,93.8262 147.024,94.8262 145.5,95.5C 146.541,90.3874 149.708,88.0541 155,88.5C 161.992,88.7924 164.992,92.4591 164,99.5C 162.577,103.727 159.577,106.06 155,106.5C 152.325,106.343 150.159,105.343 148.5,103.5 Z M 154.5,93.5 C 158.247,95.5762 158.414,97.9095 155,100.5C 151.88,98.5327 151.713,96.1993 154.5,93.5 Z"/></g>
<g><path style="opacity:0.998" fill="#46535d" d="M 53.5,83.5 C 60.3238,86.0104 65.9905,90.0104 70.5,95.5C 71.7736,96.1894 71.7736,97.0228 70.5,98C 68.8659,98.4935 67.1992,98.6602 65.5,98.5C 59.4641,94.819 53.4641,91.1523 47.5,87.5C 45.8632,85.8763 46.1966,84.8763 48.5,84.5C 50.4048,85.065 52.0715,86.065 53.5,87.5C 54.2916,86.3002 54.2916,84.9669 53.5,83.5 Z"/></g>
<g><path style="opacity:0.889" fill="#46525c" d="M 168.5,88.5 C 168.217,89.2891 167.717,89.9558 167,90.5C 166.785,93.8035 166.618,96.9701 166.5,100C 167.308,101.706 168.641,102.539 170.5,102.5C 170.071,98.7432 170.737,95.2432 172.5,92C 170.641,91.3992 170.308,90.5659 171.5,89.5C 177.473,89.4734 183.473,89.4734 189.5,89.5C 190.192,90.0253 190.692,90.6919 191,91.5C 191.499,96.1548 191.666,100.821 191.5,105.5C 189.167,105.5 186.833,105.5 184.5,105.5C 184.924,101.297 184.424,97.2968 183,93.5C 181.576,97.2968 181.076,101.297 181.5,105.5C 179.5,105.5 177.5,105.5 175.5,105.5C 175.665,102.15 175.498,98.8168 175,95.5C 174,94.1667 173,94.1667 172,95.5C 171.502,98.8168 171.335,102.15 171.5,105.5C 169.5,105.5 167.5,105.5 165.5,105.5C 165.5,99.8333 165.5,94.1667 165.5,88.5C 166.5,88.5 167.5,88.5 168.5,88.5 Z"/></g>
<g><path style="opacity:0.951" fill="#434f57" d="M 233.5,102.5 C 233.744,99.9632 233.411,97.6298 232.5,95.5C 231.039,97.4699 229.373,99.1365 227.5,100.5C 228.833,98.1667 228.833,95.8333 227.5,93.5C 228.756,93.5386 229.756,93.0386 230.5,92C 228.356,90.476 226.356,89.6427 224.5,89.5C 227.595,88.0343 230.595,88.3676 233.5,90.5C 234.796,94.6315 234.796,98.6315 233.5,102.5 Z"/></g>
<g><path style="opacity:1" fill="#43525c" d="M 30.5,120.5 C 30.5,123.5 30.5,126.5 30.5,129.5C 28.9681,128.63 27.4681,128.964 26,130.5C 25.3333,131.167 25.3333,131.833 26,132.5C 26.9195,132.93 27.7528,133.264 28.5,133.5C 28.3764,134.107 28.0431,134.44 27.5,134.5C 25.6203,134.771 24.287,134.104 23.5,132.5C 24.2566,119.525 24.7566,106.525 25,93.5C 25.3333,94.1667 25.6667,94.8333 26,95.5C 27,91.5 28,91.5 29,95.5C 29.1706,104.01 29.6706,112.343 30.5,120.5 Z"/></g>
<g><path style="opacity:1" fill="#43525f" d="M 39.5,92.5 C 39.5,92.8333 39.5,93.1667 39.5,93.5C 38.8334,100.678 38.1667,108.011 37.5,115.5C 36.5113,117.586 35.178,119.253 33.5,120.5C 33.5,119.5 33.5,118.5 33.5,117.5C 33.1499,113.454 33.8166,109.62 35.5,106C 33.6769,100.39 34.5102,95.2237 38,90.5C 38.2784,91.4158 38.7784,92.0825 39.5,92.5 Z"/></g>
<g><path style="opacity:0.549" fill="#49555f" d="M 112.5,81.5 C 113.209,82.404 114.209,82.7373 115.5,82.5C 115.5,83.8333 115.5,85.1667 115.5,86.5C 114.292,85.7659 112.959,85.4326 111.5,85.5C 111.5,89.1667 111.5,92.8333 111.5,96.5C 112.143,107.552 111.476,118.219 109.5,128.5C 109.167,113.152 109.501,97.8189 110.5,82.5C 111.183,82.1373 111.85,81.8039 112.5,81.5 Z"/></g>
<g><path style="opacity:1" fill="#435059" d="M 143.5,87.5 C 142.859,86.5178 142.193,85.5178 141.5,84.5C 137.217,83.5078 132.884,83.1744 128.5,83.5C 128.5,84.5 128.5,85.5 128.5,86.5C 130.199,86.3398 131.866,86.5065 133.5,87C 135.473,89.4889 137.306,89.6555 139,87.5C 139.399,87.7284 139.565,88.0618 139.5,88.5C 139.5,94.1667 139.5,99.8333 139.5,105.5C 137.5,105.5 135.5,105.5 133.5,105.5C 133.666,99.8236 133.499,94.1569 133,88.5C 131.301,87.5939 129.467,87.2606 127.5,87.5C 127.5,85.8333 127.5,84.1667 127.5,82.5C 133.5,82.5 139.5,82.5 145.5,82.5C 145.923,84.7812 145.256,86.4479 143.5,87.5 Z"/></g>
<g><path style="opacity:0.261" fill="#47535d" d="M 210.5,105.5 C 210.75,104.078 211.583,103.078 213,102.5C 213.978,99.3307 213.478,96.4973 211.5,94C 212.634,92.984 212.301,92.3173 210.5,92C 210.833,91.6667 211.167,91.3333 211.5,91C 210.212,90.7613 209.212,91.2613 208.5,92.5C 208.33,91.1779 208.663,90.0113 209.5,89C 211.473,88.5045 213.473,88.3379 215.5,88.5C 215.5,94.1667 215.5,99.8333 215.5,105.5C 213.833,105.5 212.167,105.5 210.5,105.5 Z"/></g>
<g><path style="opacity:0.68" fill="#3c4850" d="M 40.5,77.5 C 40.6107,78.1174 40.944,78.6174 41.5,79C 39.8078,80.4007 39.1412,82.2341 39.5,84.5C 39.5,87.1667 39.5,89.8333 39.5,92.5C 38.7784,92.0825 38.2784,91.4158 38,90.5C 34.5102,95.2237 33.6769,100.39 35.5,106C 33.8166,109.62 33.1499,113.454 33.5,117.5C 32.9578,103.34 32.9578,89.0067 33.5,74.5C 36.2406,74.7073 38.5739,75.7073 40.5,77.5 Z"/></g>
<g><path style="opacity:1" fill="#485159" d="M 81.5,86.5 C 79.5958,89.2208 77.2625,91.5541 74.5,93.5C 75.0047,94.9185 76.0047,95.5852 77.5,95.5C 74.5211,97.8123 71.8544,100.479 69.5,103.5C 68.1431,101.814 66.8098,100.148 65.5,98.5C 67.1992,98.6602 68.8659,98.4935 70.5,98C 71.7736,97.0228 71.7736,96.1894 70.5,95.5C 72.6586,90.6762 76.3253,87.6762 81.5,86.5 Z"/></g>
<g><path style="opacity:1" fill="#44535e" d="M 148.5,103.5 C 146.018,101.497 145.018,98.8306 145.5,95.5C 147.024,94.8262 148.358,93.8262 149.5,92.5C 150.086,92.7093 150.586,93.0426 151,93.5C 151.333,96.5 151.667,99.5 152,102.5C 152.92,102.93 153.753,103.264 154.5,103.5C 152.54,104.519 150.54,104.519 148.5,103.5 Z"/></g>
<g><path style="opacity:1" fill="#44545e" d="M 168.5,88.5 C 169.791,88.2627 170.791,88.596 171.5,89.5C 170.308,90.5659 170.641,91.3992 172.5,92C 170.737,95.2432 170.071,98.7432 170.5,102.5C 168.641,102.539 167.308,101.706 166.5,100C 166.618,96.9701 166.785,93.8035 167,90.5C 167.717,89.9558 168.217,89.2891 168.5,88.5 Z"/></g>
<g><path style="opacity:0.791" fill="#475159" d="M 217.5,94.5 C 218.15,94.8039 218.817,95.1373 219.5,95.5C 220.318,98.1071 220.818,100.774 221,103.5C 221.893,102.919 222.893,102.585 224,102.5C 225.573,102.845 226.74,103.511 227.5,104.5C 229.029,104.471 230.196,103.804 231,102.5C 231.464,103.094 231.631,103.761 231.5,104.5C 230.504,105.665 229.171,106.332 227.5,106.5C 224.217,105.673 220.884,105.34 217.5,105.5C 217.5,101.833 217.5,98.1667 217.5,94.5 Z"/></g>
<g><path style="opacity:1" fill="#42535f" d="M 111.5,96.5 C 112.167,101.5 112.833,106.5 113.5,111.5C 113.412,118.88 113.745,126.047 114.5,133C 113.584,133.278 112.918,133.778 112.5,134.5C 110.738,134.357 109.071,134.691 107.5,135.5C 106.23,133.243 106.564,131.243 108.5,129.5C 109.167,129.5 109.5,129.167 109.5,128.5C 111.476,118.219 112.143,107.552 111.5,96.5 Z"/></g>
<g><path style="opacity:1" fill="#414f56" d="M 207.5,100.5 C 208.806,101.467 209.473,102.801 209.5,104.5C 204.333,105.81 199.166,105.81 194,104.5C 193.333,97.5 193.333,90.5 194,83.5C 196.041,82.5769 198.208,82.2436 200.5,82.5C 200.5,88.5 200.5,94.5 200.5,100.5C 202.833,100.5 205.167,100.5 207.5,100.5 Z"/></g>
<g><path style="opacity:1" fill="#42515d" d="M 210.5,105.5 C 209.833,105.5 209.5,105.167 209.5,104.5C 209.473,102.801 208.806,101.467 207.5,100.5C 208.473,98.0521 208.806,95.3854 208.5,92.5C 209.212,91.2613 210.212,90.7613 211.5,91C 211.167,91.3333 210.833,91.6667 210.5,92C 212.301,92.3173 212.634,92.984 211.5,94C 213.478,96.4973 213.978,99.3307 213,102.5C 211.583,103.078 210.75,104.078 210.5,105.5 Z"/></g>
<g><path style="opacity:1" fill="#464f58" d="M 73.5,110.5 C 71.9087,109.781 70.4087,108.781 69,107.5C 67.042,112.771 67.042,118.105 69,123.5C 70.2156,121.038 70.8823,118.371 71,115.5C 71.2784,116.416 71.7784,117.082 72.5,117.5C 72.7261,120.249 72.3928,122.916 71.5,125.5C 69.9255,126.631 68.2588,126.798 66.5,126C 65.5286,120.928 65.1953,115.762 65.5,110.5C 63.8333,110.5 62.1667,110.5 60.5,110.5C 60.5,108.833 60.5,107.167 60.5,105.5C 65.8437,105.334 71.1771,105.501 76.5,106C 78.1612,109.15 77.1612,110.65 73.5,110.5 Z"/></g>
<g><path style="opacity:0.93" fill="#434f57" d="M 112.5,134.5 C 112.918,133.778 113.584,133.278 114.5,133C 113.745,126.047 113.412,118.88 113.5,111.5C 114.764,105.982 114.764,100.316 113.5,94.5C 115.049,92.0983 115.716,89.4317 115.5,86.5C 115.5,85.1667 115.5,83.8333 115.5,82.5C 114.209,82.7373 113.209,82.404 112.5,81.5C 113.847,80.8288 115.014,80.8288 116,81.5C 116.667,98.8333 116.667,116.167 116,133.5C 114.989,134.337 113.822,134.67 112.5,134.5 Z"/></g>
<g><path style="opacity:1" fill="#43525d" d="M 100.5,91.5 C 100.833,91.5 101.167,91.5 101.5,91.5C 101.5,98.1667 101.5,104.833 101.5,111.5C 102.5,111.5 103.5,111.5 104.5,111.5C 104.5,116.833 104.5,122.167 104.5,127.5C 101.833,128.5 99.1667,129.5 96.5,130.5C 93.1667,130.5 89.8333,130.5 86.5,130.5C 87.5511,129.778 88.2178,128.778 88.5,127.5C 92.3853,125.64 96.2186,123.64 100,121.5C 100.5,111.506 100.666,101.506 100.5,91.5 Z"/></g>
<g><path style="opacity:1" fill="#455460" d="M 73.5,110.5 C 72.5222,110.811 71.8555,111.478 71.5,112.5C 72.3094,114.071 72.6427,115.738 72.5,117.5C 71.7784,117.082 71.2784,116.416 71,115.5C 70.8823,118.371 70.2156,121.038 69,123.5C 67.042,118.105 67.042,112.771 69,107.5C 70.4087,108.781 71.9087,109.781 73.5,110.5 Z"/></g>
<g><path style="opacity:1" fill="#434f59" d="M 39.5,93.5 C 39.5,102.167 39.5,110.833 39.5,119.5C 37.0587,121.31 35.7254,123.476 35.5,126C 36.756,126.417 37.4226,127.25 37.5,128.5C 33.9049,127.15 32.5715,124.483 33.5,120.5C 35.178,119.253 36.5113,117.586 37.5,115.5C 38.1667,108.011 38.8334,100.678 39.5,93.5 Z"/></g>
<g><path style="opacity:1" fill="#45525b" d="M 39.5,119.5 C 39.4142,120.496 39.7476,121.329 40.5,122C 46.7196,124.941 52.7196,128.108 58.5,131.5C 58.0618,131.435 57.7284,131.601 57.5,132C 58.1667,132.333 58.8333,132.667 59.5,133C 57.0973,136.178 55.264,136.011 54,132.5C 51.9098,133.791 50.5764,133.124 50,130.5C 48.583,131.078 47.7496,132.078 47.5,133.5C 44.1667,131.833 40.8333,130.167 37.5,128.5C 37.4226,127.25 36.756,126.417 35.5,126C 35.7254,123.476 37.0587,121.31 39.5,119.5 Z"/></g>
<g><path style="opacity:0.99" fill="#43525b" d="M 86.5,130.5 C 89.8333,130.5 93.1667,130.5 96.5,130.5C 92.6528,133.593 88.3195,135.926 83.5,137.5C 81.0773,136.644 78.9106,137.311 77,139.5C 76.3333,138.5 76.3333,137.5 77,136.5C 78.8606,134.701 80.8606,133.035 83,131.5C 83.3333,131.833 83.6667,132.167 84,132.5C 84.7083,131.619 85.5416,130.953 86.5,130.5 Z"/></g>
<g><path style="opacity:1" fill="#44525c" d="M 108.5,129.5 C 106.564,131.243 106.23,133.243 107.5,135.5C 109.071,134.691 110.738,134.357 112.5,134.5C 109.46,136.346 106.127,137.679 102.5,138.5C 100.064,138.683 97.897,138.016 96,136.5C 92.9731,141.292 89.1398,142.292 84.5,139.5C 92.1803,135.601 100.18,132.267 108.5,129.5 Z"/></g>
<g><path style="opacity:1" fill="#46535e" d="M 30.5,129.5 C 38.66,132.108 46.66,135.108 54.5,138.5C 54.7512,140.17 55.4178,141.67 56.5,143C 53.3154,142.545 50.3154,141.379 47.5,139.5C 44.9037,140.213 42.2371,140.213 39.5,139.5C 35.2025,138.345 31.2025,136.679 27.5,134.5C 28.0431,134.44 28.3764,134.107 28.5,133.5C 27.7528,133.264 26.9195,132.93 26,132.5C 25.3333,131.833 25.3333,131.167 26,130.5C 27.4681,128.964 28.9681,128.63 30.5,129.5 Z"/></g>
<g><path style="opacity:1" fill="#45535d" d="M 58.5,131.5 C 60.7837,131.975 62.7837,132.975 64.5,134.5C 63.1986,135.64 62.0319,136.973 61,138.5C 59.6439,137.62 58.1439,137.286 56.5,137.5C 53.3777,136.439 50.3777,135.105 47.5,133.5C 47.7496,132.078 48.583,131.078 50,130.5C 50.5764,133.124 51.9098,133.791 54,132.5C 55.264,136.011 57.0973,136.178 59.5,133C 58.8333,132.667 58.1667,132.333 57.5,132C 57.7284,131.601 58.0618,131.435 58.5,131.5 Z"/></g>
<g><path style="opacity:0.935" fill="#46535a" d="M 88.5,127.5 C 88.2178,128.778 87.5511,129.778 86.5,130.5C 85.5416,130.953 84.7083,131.619 84,132.5C 83.6667,132.167 83.3333,131.833 83,131.5C 80.8606,133.035 78.8606,134.701 77,136.5C 76.3333,137.5 76.3333,138.5 77,139.5C 78.9106,137.311 81.0773,136.644 83.5,137.5C 80.7417,138.967 81.075,139.633 84.5,139.5C 83.2196,140.931 81.5529,141.598 79.5,141.5C 79.1667,140.167 78.8333,140.167 78.5,141.5C 78.5,142.167 78.1667,142.5 77.5,142.5C 77.44,143.043 77.1067,143.376 76.5,143.5C 75.7492,142.624 75.2492,141.624 75,140.5C 72.0468,141.751 69.0468,141.751 66,140.5C 64.5405,140.808 63.3739,141.475 62.5,142.5C 61.8333,142.5 61.5,142.167 61.5,141.5C 61.1583,140.662 60.4916,140.328 59.5,140.5C 58.6935,139.272 57.6935,138.272 56.5,137.5C 58.1439,137.286 59.6439,137.62 61,138.5C 62.0319,136.973 63.1986,135.64 64.5,134.5C 66.5497,136.237 68.383,138.237 70,140.5C 74.841,134.325 81.0076,129.992 88.5,127.5 Z"/></g>
<g><path style="opacity:0.937" fill="#42515a" d="M 102.5,138.5 C 95.3837,141.6 88.0503,144.433 80.5,147C 78.0787,149.094 75.412,150.76 72.5,152C 67.7726,152.928 64.1059,151.428 61.5,147.5C 62.1667,147.5 62.8333,147.5 63.5,147.5C 64.7327,150.573 66.2327,150.906 68,148.5C 69.6995,149.406 71.5328,149.739 73.5,149.5C 73.7692,147.571 73.2692,145.905 72,144.5C 69.8159,145.108 67.8159,144.441 66,142.5C 64.7083,143.791 63.5417,143.791 62.5,142.5C 63.3739,141.475 64.5405,140.808 66,140.5C 69.0468,141.751 72.0468,141.751 75,140.5C 75.2492,141.624 75.7492,142.624 76.5,143.5C 77.1067,143.376 77.44,143.043 77.5,142.5C 78.1667,142.5 78.5,142.167 78.5,141.5C 78.8333,141.5 79.1667,141.5 79.5,141.5C 81.5529,141.598 83.2196,140.931 84.5,139.5C 89.1398,142.292 92.9731,141.292 96,136.5C 97.897,138.016 100.064,138.683 102.5,138.5 Z"/></g>
<g><path style="opacity:0.976" fill="#424e58" d="M 54.5,138.5 C 56.0495,139.441 57.7162,140.107 59.5,140.5C 59.5,141.167 59.8333,141.5 60.5,141.5C 59.9094,142.151 59.2427,142.818 58.5,143.5C 60.5862,144.489 62.2529,145.822 63.5,147.5C 62.8333,147.5 62.1667,147.5 61.5,147.5C 54.0271,145.011 46.6937,142.344 39.5,139.5C 42.2371,140.213 44.9037,140.213 47.5,139.5C 50.3154,141.379 53.3154,142.545 56.5,143C 55.4178,141.67 54.7512,140.17 54.5,138.5 Z"/></g>
<g><path style="opacity:1" fill="#435460" d="M 60.5,141.5 C 60.8333,141.5 61.1667,141.5 61.5,141.5C 61.5,142.167 61.8333,142.5 62.5,142.5C 63.5417,143.791 64.7083,143.791 66,142.5C 67.8159,144.441 69.8159,145.108 72,144.5C 73.2692,145.905 73.7692,147.571 73.5,149.5C 71.5328,149.739 69.6995,149.406 68,148.5C 66.2327,150.906 64.7327,150.573 63.5,147.5C 62.2529,145.822 60.5862,144.489 58.5,143.5C 59.2427,142.818 59.9094,142.151 60.5,141.5 Z"/></g>
</svg>
